<svg style="display: none;" xmlns="http://www.w3.org/2000/svg">
  <defs>
    <!-- Lightning bolt icon for "Livraison rapide" -->
    <symbol id="icon-lightning" viewBox="0 0 24 24" fill="none" stroke="currentColor" stroke-width="2">
      <path d="M13 2L3 14h9l-1 8 10-12h-9l1-8z"/>
    </symbol>
    
    <!-- Shield with checkmark for "Maintenance incluse" -->
    <symbol id="icon-shield" viewBox="0 0 24 24" fill="none" stroke="currentColor" stroke-width="2">
      <path d="M9 12l2 2 4-4"/>
      <path d="M21 12c-1 0-3-1-3-3s2-3 3-3 3 1 3 3-2 3-3 3"/>
      <path d="M3 12c1 0 3-1 3-3s-2-3-3-3-3 1-3 3 2 3 3 3"/>
      <path d="M12 3c0 1-1 3-3 3s-3-2-3-3 1-3 3-3 3 2 3 3"/>
      <path d="M12 21c0-1 1-3 3-3s3 2 3 3-1 3-3 3-3-2-3-3"/>
    </symbol>
    
    <!-- Graduation cap for "Formations certifiantes" -->
    <symbol id="icon-graduation" viewBox="0 0 24 24" fill="none" stroke="currentColor" stroke-width="2">
      <path d="M22 10v6M2 10l10-5 10 5-10 5z"/>
      <path d="M6 12v5c3 3 9 3 12 0v-5"/>
    </symbol>
    
    <!-- User icon for mobile app mockup -->
    <symbol id="icon-user" viewBox="0 0 24 24" fill="none" stroke="currentColor" stroke-width="2">
      <path d="M20 21v-2a4 4 0 0 0-4-4H8a4 4 0 0 0-4 4v2"/>
      <circle cx="12" cy="7" r="4"/>
    </symbol>
    
    <!-- Menu hamburger icon -->
    <symbol id="icon-menu" viewBox="0 0 24 24" fill="none" stroke="currentColor" stroke-width="2">
      <line x1="3" y1="6" x2="21" y2="6"/>
      <line x1="3" y1="12" x2="21" y2="12"/>
      <line x1="3" y1="18" x2="21" y2="18"/>
    </symbol>
    
    <!-- Close icon -->
    <symbol id="icon-close" viewBox="0 0 24 24" fill="none" stroke="currentColor" stroke-width="2">
      <line x1="18" y1="6" x2="6" y2="18"/>
      <line x1="6" y1="6" x2="18" y2="18"/>
    </symbol>
  </defs>
</svg>
